# This file uses centimeters as units for non-parametric coordinates.

mtllib level_1_b_floor_glass.mtl
g default
v 54.669231 -99.180803 -79.041859
v 57.725332 -99.180803 -82.617318
v 44.887897 -99.180803 -71.242617
v 59.251374 -99.180803 -87.088818
v 40.777092 -99.180803 -68.982883
v 36.108638 -99.180803 -68.200371
v 60.933743 -99.180803 -98.948457
v 60.800488 -99.180803 -103.660763
v 59.116532 -99.180803 -108.127748
v -0.023571 -99.180803 -68.200390
v -36.120053 -99.180803 -68.200371
v 41.072510 -99.180803 -139.380916
v -40.785842 -99.180803 -69.034283
v -44.826422 -99.180803 -71.430067
v -53.444346 -99.180803 -78.938800
v 23.006289 -99.180803 -170.672282
v -56.430188 -99.180803 -82.545611
v -58.121551 -99.180803 -86.930726
v 19.976428 -99.180803 -174.298115
v 15.916179 -99.180803 -176.659057
v -60.650633 -99.180803 -98.954737
v -60.750096 -99.180803 -103.674368
v -59.135258 -99.180803 -108.177000
v 5.325606 -99.180803 -180.538774
v 0.708172 -99.180803 -181.384873
v -41.119668 -99.180803 -139.380878
v -3.927342 -99.180803 -180.643568
v -23.063271 -99.180803 -170.655254
v -15.907483 -99.180803 -176.560515
v -20.010580 -99.180803 -174.266917
vt 0.628376 0.837327
vt 0.353784 0.984790
vt 0.314161 0.998008
vt 0.272628 0.997194
vt 0.166818 0.976493
vt 0.128229 0.962648
vt 0.096490 0.938208
vt 0.030413 0.867668
vt 0.009330 0.834595
vt 0.001992 0.796404
vt 0.001992 0.500945
vt 0.001992 0.205192
vt 0.008878 0.166980
vt 0.028764 0.133332
vt 0.097396 0.053269
vt 0.128860 0.028254
vt 0.168209 0.015763
vt 0.272573 0.001992
vt 0.314041 0.003083
vt 0.353350 0.016866
vt 0.628376 0.164562
vt 0.903738 0.312439
vt 0.935645 0.337239
vt 0.956421 0.370473
vt 0.990562 0.457160
vt 0.998008 0.494955
vt 0.991485 0.532898
vt 0.955554 0.630959
vt 0.935370 0.664544
vt 0.903588 0.689531
vn 0.000000 1.000000 0.000000
vn 0.000000 1.000000 0.000000
vn 0.000000 1.000000 0.000000
vn 0.000000 1.000000 0.000000
vn 0.000000 1.000000 0.000000
vn 0.000000 1.000000 0.000000
vn 0.000000 1.000000 0.000000
vn 0.000000 1.000000 0.000000
vn 0.000000 1.000000 0.000000
vn 0.000000 1.000000 0.000000
vn 0.000000 1.000000 0.000000
vn 0.000000 1.000000 0.000000
vn 0.000000 1.000000 0.000000
vn 0.000000 1.000000 0.000000
vn 0.000000 1.000000 0.000000
vn 0.000000 1.000000 0.000000
vn 0.000000 1.000000 0.000000
vn 0.000000 1.000000 0.000000
vn 0.000000 1.000000 0.000000
vn 0.000000 1.000000 0.000000
vn 0.000000 1.000000 0.000000
vn 0.000000 1.000000 0.000000
vn 0.000000 1.000000 0.000000
vn 0.000000 1.000000 0.000000
vn 0.000000 1.000000 0.000000
vn 0.000000 1.000000 0.000000
vn 0.000000 1.000000 0.000000
vn 0.000000 1.000000 0.000000
vn 0.000000 1.000000 0.000000
vn 0.000000 1.000000 0.000000
s off
g pCube21
usemtl texturedFacets42
f 26/1/1 23/2/2 22/3/3 21/4/4 18/5/5 17/6/6 15/7/7 14/8/8 13/9/9 11/10/10 10/11/11 6/12/12 5/13/13 3/14/14 1/15/15 2/16/16 4/17/17 7/18/18 8/19/19 9/20/20 12/21/21 16/22/22 19/23/23 20/24/24 24/25/25 25/26/26 27/27/27 29/28/28 30/29/29 28/30/30
