# This file uses centimeters as units for non-parametric coordinates.

mtllib level_1_a_wall.mtl
g default
v -305.556557 128.433704 -246.272565
v -305.556557 139.063693 -246.272565
v -305.556557 117.803714 -246.272565
v -305.556557 123.118709 -246.272565
v -305.556557 144.378742 -246.272565
v -305.556557 133.748691 -246.272565
v -305.556557 112.488666 -246.272565
v -294.899849 109.830943 -246.272565
v -278.970833 109.830943 -246.272565
v -249.023323 109.830943 -246.272565
v -239.040810 109.830943 -246.272565
v -268.988350 109.830943 -246.272565
v -259.005836 109.830943 -246.272565
v -229.058327 109.830943 -246.272565
v -219.075813 109.830844 -246.272565
v -305.556557 144.826251 -246.272565
v -214.084541 109.830943 -246.272565
v -224.067055 109.830943 -246.272565
v -234.049568 109.830943 -246.272565
v -244.032082 109.830943 -246.272565
v -254.014595 109.830943 -246.272565
v -263.997078 109.830943 -246.272565
v -273.979591 109.830943 -246.272565
v -286.935341 109.830943 -246.272565
v -299.617653 127.328204 -245.150647
v -299.321144 127.328586 -245.186612
v -299.299660 142.797611 -245.191876
v -299.612678 142.523532 -245.150647
v -299.612678 112.133655 -245.150647
v -299.299660 111.859592 -245.191876
v -300.838966 112.140163 -245.150647
v -301.162331 111.857036 -245.193250
v -300.833748 114.274730 -245.150647
v -301.130379 114.219508 -245.185315
v -300.836647 118.950076 -245.150647
v -301.133186 118.913936 -245.186017
v -300.838356 123.625385 -245.150647
v -301.134865 123.609241 -245.186429
v -300.838783 128.300693 -245.150647
v -301.135261 128.304950 -245.186597
v -300.837807 132.976016 -245.150647
v -301.134315 133.000552 -245.186337
v -300.835548 137.651325 -245.150647
v -301.132149 137.695514 -245.185834
v -300.832252 142.326663 -245.150647
v -301.128944 142.389468 -245.185040
v -300.843788 142.523547 -245.150647
v -301.156776 142.797611 -245.191876
v -305.556557 109.830943 -246.272565
v -294.899849 107.173740 -248.929852
v -305.556587 107.173740 -248.929852
v -278.970833 107.173740 -248.929852
v -268.988350 107.173740 -248.929852
v -259.005836 107.173740 -248.929852
v -249.023323 107.173740 -248.929852
v -239.040810 107.173740 -248.929852
v -229.058296 107.173740 -248.929852
v -219.075813 107.173740 -248.929852
v -147.821358 109.830943 -246.272565
v -150.478584 107.173740 -248.929852
v -147.821358 144.826267 -246.272565
v -147.821358 127.328578 -246.272565
v -251.996559 127.328586 -246.272565
v -251.996559 144.826251 -246.272565
v -251.996590 127.328586 -246.272565
v -147.821358 127.328578 -246.272565
v -294.899849 127.328586 -246.272565
v -294.899849 144.826251 -246.272565
vt 0.000938 0.931628
vt 0.069994 0.931628
vt 0.069994 0.999062
vt 0.000938 0.999062
vt 0.000938 0.881229
vt 0.000938 0.830831
vt 0.069994 0.830831
vt 0.000938 0.799248
vt 0.000938 0.767664
vt 0.069994 0.767664
vt 0.000938 0.736080
vt 0.000938 0.704496
vt 0.069994 0.704496
vt 0.000938 0.641328
vt 0.069994 0.641328
vt 0.000938 0.672912
vt 0.000938 0.609744
vt 0.000938 0.578160
vt 0.069994 0.578160
vt 0.000938 0.546577
vt 0.000938 0.514993
vt 0.069994 0.514993
vt 0.000938 0.483409
vt 0.000938 0.451825
vt 0.069994 0.451825
vt 0.000938 0.420241
vt 0.000938 0.000938
vt 0.069994 0.017753
vt 0.089625 0.660142
vt 0.089624 0.000938
vt 0.544343 0.000938
vt 0.544342 0.660142
vt 0.544342 0.931628
vt 0.089625 0.931628
vt 0.544342 0.959605
vt 0.142344 0.959469
vt 0.999059 0.931628
vt 0.946340 0.959469
vt 0.544352 0.961481
vt 0.149466 0.961450
vt 0.089625 0.999062
vt 0.142344 0.971221
vt 0.544342 0.660143
vt 0.544343 0.000938
vt 0.999059 0.000938
vt 0.999059 0.420241
vt 0.999062 0.451825
vt 0.999059 0.483409
vt 0.999059 0.514993
vt 0.999059 0.546577
vt 0.999059 0.578160
vt 0.999059 0.609744
vt 0.999059 0.641328
vt 0.999059 0.672912
vt 0.999059 0.704496
vt 0.999059 0.736080
vt 0.999059 0.767664
vt 0.999059 0.799248
vt 0.999059 0.830831
vt 0.999059 0.881229
vt 0.999059 0.999062
vt 0.946407 0.971256
vt 0.939218 0.961450
vt 0.939049 0.969209
vt 0.883577 0.969176
vt 0.762078 0.969195
vt 0.640579 0.969206
vt 0.519080 0.969208
vt 0.397581 0.969202
vt 0.276082 0.969188
vt 0.154582 0.969167
vt 0.149466 0.969240
vt 0.101254 0.999062
vt 0.152950 0.971044
vt 0.929992 0.999062
vt 0.885012 0.971053
vt 0.763017 0.971071
vt 0.640998 0.971082
vt 0.518969 0.971084
vt 0.396943 0.971078
vt 0.274934 0.971065
vt 0.239378 0.999062
vt 0.791868 0.999062
vt 0.653746 0.999062
vt 0.515624 0.999062
vt 0.377501 0.999062
vn 0.000000 0.707117 -0.707096
vn 0.000000 0.707117 -0.707096
vn 0.000000 0.707117 -0.707096
vn 0.000000 0.707117 -0.707096
vn 0.000000 0.707118 -0.707095
vn 0.000000 0.707118 -0.707095
vn 0.000000 0.707118 -0.707095
vn 0.000000 0.707118 -0.707095
vn 0.000000 0.707118 -0.707095
vn 0.000000 0.707118 -0.707096
vn 0.000000 0.707118 -0.707096
vn 0.000000 0.707118 -0.707096
vn 0.000000 0.707118 -0.707096
vn 0.000000 0.707118 -0.707096
vn 0.000000 0.707118 -0.707095
vn 0.000000 0.707118 -0.707095
vn 0.000000 0.707118 -0.707095
vn 0.000000 0.707118 -0.707095
vn 0.000000 0.707118 -0.707095
vn 0.000000 0.707117 -0.707096
vn 0.000000 0.707117 -0.707096
vn 0.000000 0.707117 -0.707096
vn 0.000000 0.707117 -0.707096
vn 0.000000 0.707117 -0.707096
vn 0.000000 0.707118 -0.707096
vn 0.000000 0.707118 -0.707096
vn 0.000000 0.707118 -0.707096
vn 0.000000 0.707118 -0.707096
vn 0.000000 0.707118 -0.707096
vn 0.000000 0.707118 -0.707095
vn 0.000000 0.707118 -0.707095
vn 0.000000 0.707118 -0.707095
vn 0.000000 0.707118 -0.707095
vn 0.000000 0.707118 -0.707095
vn 0.000004 0.707121 -0.707092
vn 0.000004 0.707121 -0.707092
vn 0.000004 0.707121 -0.707092
vn 0.000004 0.707121 -0.707092
vn 0.000004 0.707121 -0.707092
vn -0.000001 0.707118 -0.707095
vn -0.000001 0.707118 -0.707095
vn -0.000001 0.707118 -0.707095
vn -0.000001 0.707118 -0.707095
vn -0.000001 0.707118 -0.707095
vn 0.000000 0.000000 -1.000000
vn 0.000000 0.000000 -1.000000
vn 0.000000 0.000000 -1.000000
vn 0.000000 0.000000 -1.000000
vn 0.000000 0.000000 -1.000000
vn 0.000000 0.000000 -1.000000
vn 0.000000 0.000000 -1.000000
vn 0.000000 0.000000 -1.000000
vn 0.000000 0.000000 -1.000000
vn 0.000000 0.000000 -1.000000
vn 0.000000 0.000000 -1.000000
vn 0.000000 0.000000 -1.000000
vn 0.000000 0.000000 -1.000000
vn 0.000000 0.000000 -1.000000
vn 0.000000 0.000000 -1.000000
vn 0.000000 0.000000 -1.000000
vn 0.000000 0.000000 -1.000000
vn 0.000000 0.000000 -1.000000
vn 0.000000 0.000000 -1.000000
vn 0.000000 0.000000 -1.000000
vn 0.000000 0.000000 -1.000000
vn 0.000000 0.000000 -1.000000
vn 0.000000 0.000000 -1.000000
vn 0.000000 0.000000 -1.000000
vn 0.000000 0.000000 -1.000000
vn 0.000000 0.000000 -1.000000
vn -0.125634 0.000062 -0.992077
vn -0.125634 0.000062 -0.992077
vn -0.125634 0.000062 -0.992077
vn -0.125634 0.000062 -0.992077
vn -0.125605 -0.000062 -0.992080
vn -0.125605 -0.000062 -0.992080
vn -0.125605 -0.000062 -0.992080
vn -0.125605 -0.000062 -0.992080
vn 0.000000 -0.148762 -0.988873
vn 0.000000 -0.148761 -0.988873
vn 0.000000 -0.148761 -0.988873
vn 0.000000 -0.148761 -0.988873
vn 0.000629 0.148770 -0.988872
vn 0.000629 0.148770 -0.988872
vn 0.000629 0.148770 -0.988872
vn 0.000629 0.148770 -0.988872
vn 0.123286 0.000731 -0.992371
vn 0.123286 0.000731 -0.992371
vn 0.123286 0.000731 -0.992371
vn 0.123286 0.000731 -0.992371
vn 0.117261 -0.000003 -0.993101
vn 0.117261 -0.000003 -0.993101
vn 0.117261 -0.000003 -0.993101
vn 0.117261 -0.000003 -0.993101
vn 0.119121 0.000000 -0.992880
vn 0.119121 0.000000 -0.992880
vn 0.119121 0.000000 -0.992880
vn 0.119121 0.000000 -0.992880
vn 0.120098 -0.000007 -0.992762
vn 0.120099 -0.000007 -0.992762
vn 0.120099 -0.000007 -0.992762
vn 0.120098 -0.000007 -0.992762
vn 0.119937 0.000002 -0.992781
vn 0.119937 0.000002 -0.992781
vn 0.119937 0.000002 -0.992782
vn 0.119937 0.000002 -0.992782
vn 0.118659 -0.000002 -0.992935
vn 0.118659 -0.000002 -0.992935
vn 0.118659 -0.000002 -0.992935
vn 0.118659 -0.000002 -0.992935
vn 0.116487 0.000003 -0.993192
vn 0.116487 0.000003 -0.993192
vn 0.116487 0.000003 -0.993192
vn 0.116487 0.000003 -0.993192
vn 0.121290 -0.003322 -0.992612
vn 0.121290 -0.003322 -0.992612
vn 0.121290 -0.003322 -0.992612
vn 0.121290 -0.003322 -0.992612
vn 0.000002 0.000000 -1.000000
vn 0.000002 0.000000 -1.000000
vn 0.000002 0.000000 -1.000000
vn 0.000002 0.000000 -1.000000
vn 0.000002 0.000000 -1.000000
vn 0.000002 0.000000 -1.000000
vn 0.000002 0.000000 -1.000000
vn 0.000002 0.000000 -1.000000
vn 0.000002 0.000000 -1.000000
vn 0.000002 0.000000 -1.000000
vn 0.000002 0.000000 -1.000000
vn 0.000002 0.000000 -1.000000
vn -0.238531 0.000000 -0.971135
vn -0.238531 0.000000 -0.971135
vn -0.238531 0.000000 -0.971135
vn -0.238531 0.000000 -0.971135
vn -0.238531 0.000000 -0.971135
vn -0.238531 0.000000 -0.971135
vn -0.238531 0.000000 -0.971135
vn -0.238531 0.000000 -0.971135
vn 0.000001 0.470160 -0.882581
vn 0.000001 0.470160 -0.882581
vn 0.000001 0.470160 -0.882581
vn 0.000001 0.470160 -0.882581
vn 0.238533 0.000019 -0.971134
vn 0.238533 0.000019 -0.971134
vn 0.238533 0.000019 -0.971134
vn 0.238533 0.000019 -0.971134
vn 0.238548 -0.000001 -0.971131
vn 0.238548 -0.000001 -0.971131
vn 0.238548 -0.000001 -0.971131
vn 0.238548 -0.000001 -0.971131
vn 0.238547 -0.000001 -0.971131
vn 0.238547 -0.000001 -0.971131
vn 0.238547 -0.000001 -0.971131
vn 0.238547 -0.000001 -0.971131
vn 0.238540 -0.000007 -0.971133
vn 0.238540 -0.000007 -0.971133
vn 0.238540 -0.000007 -0.971133
vn 0.238540 -0.000007 -0.971133
vn 0.238535 0.000003 -0.971134
vn 0.238535 0.000003 -0.971134
vn 0.238535 0.000003 -0.971134
vn 0.238535 0.000003 -0.971134
vn 0.238534 -0.000004 -0.971134
vn 0.238534 -0.000004 -0.971134
vn 0.238534 -0.000004 -0.971134
vn 0.238534 -0.000004 -0.971134
vn 0.238532 0.000001 -0.971135
vn 0.238532 0.000001 -0.971135
vn 0.238532 0.000001 -0.971135
vn 0.238532 0.000001 -0.971135
vn 0.238536 0.000000 -0.971134
vn 0.238536 0.000000 -0.971134
vn 0.238536 0.000000 -0.971134
vn 0.238536 0.000000 -0.971134
vn 0.000000 -0.470163 -0.882580
vn 0.000000 -0.470163 -0.882580
vn 0.000000 -0.470163 -0.882580
vn 0.000000 -0.470163 -0.882580
s off
g polySurface34 polySurface26 polySurface19 polySurface16 pCube25
usemtl texturedFacets138
f 8/1/1 50/2/2 51/3/3 49/4/4
f 50/2/5 8/1/6 24/5/7 9/6/8 52/7/9
f 52/7/10 9/6/11 23/8/12 12/9/13 53/10/14
f 10/14/15 55/15/16 54/13/17 13/12/18 21/16/19
f 55/15/20 10/14/21 20/17/22 11/18/23 56/19/24
f 56/19/25 11/18/26 19/20/27 14/21/28 57/22/29
f 53/10/30 12/9/31 22/11/32 13/12/33 54/13/34
f 57/22/35 14/21/36 18/23/37 15/24/38 58/25/39
f 58/25/40 15/24/41 17/26/42 59/27/43 60/28/44
f 64/29/45 61/30/46 62/31/47 63/32/48 67/33/49 68/34/50
f 65/43/51 66/44/52 59/45/53 17/46/54 15/47/55 18/48/56 14/49/57 19/50/58 11/51/59 20/52/60 10/53/61 21/54/62 13/55/63 22/56/64 12/57/65 23/58/66 9/59/67 24/60/68 8/37/69 67/33/70
f 25/39/71 26/35/72 30/38/73 29/63/74
f 26/35/75 25/39/76 28/40/77 27/36/78
f 27/36/79 28/40/80 47/72/81 48/42/82
f 29/63/83 30/38/84 32/62/85 31/64/86
f 31/64/87 32/62/88 34/76/89 33/65/90
f 33/65/91 34/76/92 36/77/93 35/66/94
f 35/66/95 36/77/96 38/78/97 37/67/98
f 37/67/99 38/78/100 40/79/101 39/68/102
f 39/68/103 40/79/104 42/80/105 41/69/106
f 41/69/107 42/80/108 44/81/109 43/70/110
f 43/70/111 44/81/112 46/74/113 45/71/114
f 45/71/115 46/74/116 48/42/117 47/72/118
f 28/40/119 25/39/120 29/63/121 31/64/122 33/65/123 35/66/124 37/67/125 39/68/126 41/69/127 43/70/128 45/71/129 47/72/130
f 68/34/131 67/33/132 26/35/133 27/36/134
f 67/33/135 8/37/136 30/38/137 26/35/138
f 8/37/139 49/61/140 32/62/141 30/38/142
f 49/61/143 7/75/144 34/76/145 32/62/146
f 7/75/147 3/83/148 36/77/149 34/76/150
f 3/83/151 4/84/152 38/78/153 36/77/154
f 4/84/155 1/85/156 40/79/157 38/78/158
f 1/85/159 6/86/160 42/80/161 40/79/162
f 6/86/163 2/82/164 44/81/165 42/80/166
f 2/82/167 5/73/168 46/74/169 44/81/170
f 5/73/171 16/41/172 48/42/173 46/74/174
f 16/41/175 68/34/176 27/36/177 48/42/178
