# This file uses centimeters as units for non-parametric coordinates.

mtllib level_1_a_walllight.mtl
g default
v 95.390419 98.007379 -417.527326
v 95.390419 98.007379 -392.409062
v 95.390419 98.007379 -376.464025
v 95.390419 98.007379 -371.149030
v 95.390419 98.007379 -365.834043
v 95.390419 98.007379 -360.518987
v 95.390419 98.007379 -387.094007
v 95.390419 98.007379 -381.779019
v 95.390419 98.007379 -335.400723
v 95.390419 133.002700 -335.400723
v 95.390419 133.002700 -417.527326
v 95.390419 115.505015 -335.400723
v 95.390419 120.813771 -338.433301
v 95.390419 111.465282 -338.433301
v 95.390419 130.162301 -338.433301
v 95.390419 130.162301 -414.494748
v 95.390419 111.465282 -414.494748
v 95.390419 111.465282 -391.231519
v 95.390419 111.465282 -386.308949
v 95.390419 111.465282 -381.386487
v 95.390419 111.465282 -376.464025
v 95.390419 111.465282 -371.541562
v 95.390419 111.465282 -366.619100
v 95.390419 111.465282 -361.696530
v 97.784889 120.813788 -344.256787
v 97.784889 119.204568 -344.256787
v 97.784889 122.423009 -344.256787
v 97.784889 122.423009 -408.671262
v 97.784889 119.204568 -408.671262
v 97.784889 119.204568 -388.970227
v 97.784889 119.204568 -384.801457
v 97.784889 119.204568 -380.632741
v 97.784889 119.204568 -376.464025
v 97.784889 119.204568 -372.295308
v 97.784889 119.204568 -368.126592
v 97.784889 119.204568 -363.957822
v 98.740265 120.828755 -344.734242
v 98.262627 120.813783 -344.256787
v 98.262749 119.204568 -344.256787
v 98.740265 119.682095 -344.734380
v 98.740265 121.945490 -344.734380
v 98.262749 122.423007 -344.256787
v 98.740265 121.945487 -408.193669
v 98.262749 122.423007 -408.671262
v 98.740265 119.682095 -408.193669
v 98.262749 119.204568 -408.671262
v 98.740265 119.682095 -388.970227
v 98.262749 119.204568 -388.970227
v 98.740265 119.682095 -384.801457
v 98.262749 119.204568 -384.801457
v 98.740265 119.682095 -380.632741
v 98.262749 119.204568 -380.632741
v 98.740265 119.682095 -376.464025
v 98.262749 119.204568 -376.464025
v 98.740265 119.682095 -372.295308
v 98.262749 119.204568 -372.295308
v 98.740265 119.682095 -368.126592
v 98.262749 119.204568 -368.126592
v 98.740265 119.682095 -363.957822
v 98.262749 119.204568 -363.957822
v 92.733193 95.350173 -338.058019
v 92.733193 95.350173 -360.518987
v 92.733193 95.350173 -365.834043
v 92.733193 95.350173 -371.149030
v 92.733193 95.350173 -376.464025
v 92.733193 95.350173 -381.779019
v 92.733193 95.350173 -387.094007
v 92.733193 95.350173 -392.409062
v 92.733193 95.350173 -414.870030
vt 0.062266 0.001609
vt 0.443959 0.001609
vt 0.559765 0.038440
vt 0.355837 0.038440
vt 0.825654 0.001609
vt 0.763693 0.038440
vt 0.559765 0.109168
vt 0.524661 0.109168
vt 0.062266 0.306678
vt 0.355837 0.320980
vt 0.825654 0.999062
vt 0.763693 0.962230
vt 0.594868 0.109168
vt 0.524661 0.348444
vt 0.062266 0.371231
vt 0.355837 0.380766
vt 0.062266 0.999062
vt 0.355837 0.962230
vt 0.594868 0.891502
vt 0.524661 0.399075
vt 0.062266 0.435783
vt 0.355837 0.440551
vt 0.062266 0.693993
vt 0.355837 0.679691
vt 0.524661 0.891502
vt 0.524661 0.449705
vt 0.062266 0.500335
vt 0.355837 0.500335
vt 0.062266 0.629440
vt 0.355837 0.619905
vt 0.524661 0.652227
vt 0.524661 0.500335
vt 0.062266 0.564888
vt 0.355837 0.560120
vt 0.524661 0.601596
vt 0.524661 0.550966
vt 0.833704 0.002918
vt 0.844120 0.008718
vt 0.844120 0.242193
vt 0.833704 0.242193
vt 0.869134 0.008716
vt 0.893494 0.008718
vt 0.893494 0.779451
vt 0.844120 0.779451
vt 0.844120 0.545976
vt 0.844120 0.495345
vt 0.844120 0.444715
vt 0.844120 0.394085
vt 0.844120 0.343454
vt 0.844120 0.292824
vt 0.833704 0.292824
vt 0.903911 0.785251
vt 0.833704 0.785251
vt 0.833704 0.545976
vt 0.833704 0.495345
vt 0.833704 0.444715
vt 0.833704 0.394085
vt 0.833704 0.343454
vt 0.058903 0.998665
vt 0.000938 0.966392
vt 0.000938 0.693596
vt 0.058903 0.693596
vt 0.000938 0.629043
vt 0.058903 0.629043
vt 0.000938 0.564491
vt 0.058903 0.564491
vt 0.000938 0.499939
vt 0.058903 0.499939
vt 0.000938 0.435386
vt 0.058903 0.435386
vt 0.000938 0.370834
vt 0.058903 0.370834
vt 0.000938 0.306281
vt 0.058903 0.306281
vt 0.000938 0.033486
vt 0.058903 0.001212
vt 0.932011 0.777936
vt 0.921594 0.783737
vt 0.921594 0.001403
vt 0.932011 0.007203
vt 0.911170 0.783737
vt 0.911170 0.001403
vt 0.940220 0.785078
vt 0.940220 0.545803
vt 0.950644 0.545803
vt 0.950644 0.785078
vt 0.940220 0.495172
vt 0.950644 0.495172
vt 0.940220 0.444541
vt 0.950644 0.444541
vt 0.940220 0.393911
vt 0.950644 0.393911
vt 0.940220 0.343281
vt 0.950644 0.343281
vt 0.940220 0.292650
vt 0.950644 0.292650
vt 0.940220 0.242019
vt 0.950644 0.242019
vt 0.940220 0.002744
vt 0.950644 0.002744
vt 0.980428 0.020301
vt 0.970009 0.020483
vt 0.970011 0.000938
vt 0.980428 0.006738
vt 0.980428 0.034228
vt 0.970011 0.040027
vt 0.959587 0.020483
vt 0.959587 0.000938
vt 0.959587 0.040027
vt 0.988638 0.041626
vt 0.988638 0.002537
vt 0.999062 0.002537
vt 0.999062 0.041626
vn -0.707104 0.707109 0.000000
vn -0.707104 0.707109 0.000000
vn -0.707104 0.707109 0.000000
vn -0.707104 0.707109 0.000000
vn -0.707104 0.707109 0.000000
vn -0.707104 0.707109 0.000000
vn -0.707104 0.707109 0.000000
vn -0.707104 0.707109 0.000000
vn -0.707103 0.707110 0.000000
vn -0.707103 0.707110 0.000000
vn -0.707103 0.707110 0.000000
vn -0.707103 0.707110 0.000000
vn -0.707103 0.707110 0.000000
vn -0.707103 0.707110 0.000000
vn -0.707103 0.707110 0.000000
vn -0.707103 0.707110 0.000000
vn -0.707103 0.707110 0.000000
vn -0.707103 0.707110 0.000000
vn -0.707103 0.707110 0.000000
vn -0.707103 0.707110 0.000000
vn -0.707104 0.707109 0.000000
vn -0.707104 0.707109 0.000000
vn -0.707104 0.707109 0.000000
vn -0.707104 0.707109 0.000000
vn -0.707104 0.707109 0.000000
vn -0.707104 0.707109 0.000000
vn -0.707104 0.707109 0.000000
vn -0.707104 0.707109 0.000000
vn -0.707103 0.707110 0.000000
vn -0.707103 0.707110 0.000000
vn -0.707103 0.707110 0.000000
vn -0.707103 0.707110 0.000000
vn -1.000000 0.000000 0.000000
vn -1.000000 0.000000 0.000000
vn -1.000000 0.000000 0.000000
vn -1.000000 0.000000 0.000000
vn -1.000000 0.000000 0.000000
vn -1.000000 0.000000 0.000000
vn -1.000000 0.000000 0.000000
vn -1.000000 0.000000 0.000000
vn -1.000000 0.000000 0.000000
vn -1.000000 0.000000 0.000000
vn -1.000000 0.000000 0.000000
vn -1.000000 0.000000 0.000000
vn -1.000000 0.000000 0.000000
vn -1.000000 0.000000 0.000000
vn -1.000000 0.000000 0.000000
vn -1.000000 0.000000 0.000000
vn -1.000000 0.000000 0.000000
vn -1.000000 0.000000 0.000000
vn -1.000000 0.000000 0.000000
vn -1.000000 0.000000 0.000000
vn -1.000000 0.000000 0.000000
vn -1.000000 0.000000 0.000000
vn -1.000000 0.000000 0.000000
vn -1.000000 0.000000 0.000000
vn -1.000000 0.000000 0.000000
vn -1.000000 0.000000 0.000000
vn -1.000000 0.000000 0.000000
vn -1.000000 0.000000 0.000000
vn -1.000000 0.000000 0.000000
vn -1.000000 0.000000 0.000000
vn -1.000000 0.000000 0.000000
vn -1.000000 0.000000 0.000000
vn -1.000000 0.000000 0.000000
vn -1.000000 0.000000 0.000000
vn -1.000000 0.000000 0.000000
vn -1.000000 0.000000 0.000000
vn -1.000000 0.000000 0.000000
vn -1.000000 0.000000 0.000000
vn -1.000000 0.000000 0.000000
vn -1.000000 0.000000 0.000000
vn -1.000000 0.000000 0.000000
vn -1.000000 0.000000 0.000000
vn -1.000000 0.000000 0.000000
vn -1.000000 0.000000 0.000000
vn -1.000000 0.000000 0.000000
vn -1.000000 0.000000 0.000000
vn -1.000000 0.000000 0.000000
vn -1.000000 0.000000 0.000000
vn -0.924870 0.000000 -0.380283
vn -0.924870 0.000000 -0.380283
vn -0.924870 0.000000 -0.380283
vn -0.924870 0.000000 -0.380283
vn -0.924870 0.000000 -0.380283
vn -0.924870 0.000000 -0.380283
vn -0.924870 0.000000 -0.380283
vn -0.924870 0.000000 -0.380283
vn -0.955322 -0.295568 0.000000
vn -0.955322 -0.295568 0.000000
vn -0.955322 -0.295568 0.000000
vn -0.955322 -0.295568 0.000000
vn -0.924870 0.000000 0.380283
vn -0.924870 0.000000 0.380283
vn -0.924870 0.000000 0.380283
vn -0.924870 0.000000 0.380283
vn -0.955322 0.295568 0.000000
vn -0.955322 0.295568 0.000000
vn -0.955322 0.295568 0.000000
vn -0.955322 0.295568 0.000000
vn -0.955322 0.295568 0.000000
vn -0.955322 0.295568 0.000000
vn -0.955322 0.295568 0.000000
vn -0.955322 0.295568 0.000000
vn -0.955321 0.295569 0.000000
vn -0.955321 0.295569 0.000000
vn -0.955321 0.295569 0.000000
vn -0.955322 0.295569 0.000000
vn -0.955322 0.295568 0.000000
vn -0.955322 0.295568 0.000000
vn -0.955322 0.295568 0.000000
vn -0.955322 0.295568 0.000000
vn -0.955322 0.295568 0.000000
vn -0.955322 0.295568 0.000000
vn -0.955322 0.295568 0.000000
vn -0.955322 0.295568 0.000000
vn -0.955322 0.295569 0.000000
vn -0.955322 0.295569 0.000000
vn -0.955322 0.295569 0.000000
vn -0.955322 0.295569 0.000000
vn -0.955322 0.295569 0.000000
vn -0.955322 0.295569 0.000000
vn -0.955322 0.295569 0.000000
vn -0.955322 0.295569 0.000000
vn -0.955322 0.295568 0.000000
vn -0.955322 0.295568 0.000000
vn -0.955322 0.295568 0.000000
vn -0.955322 0.295568 0.000000
vn -0.707071 -0.000002 -0.707143
vn -0.707071 -0.000002 -0.707143
vn -0.707071 -0.000002 -0.707143
vn -0.707071 -0.000002 -0.707143
vn -0.707067 0.000004 -0.707147
vn -0.707067 0.000004 -0.707147
vn -0.707067 0.000004 -0.707147
vn -0.707067 0.000004 -0.707147
vn -0.707108 0.707105 0.000000
vn -0.707108 0.707105 0.000000
vn -0.707108 0.707105 0.000000
vn -0.707108 0.707105 0.000000
vn -0.707104 -0.707109 0.000000
vn -0.707104 -0.707109 0.000000
vn -0.707104 -0.707109 0.000000
vn -0.707104 -0.707109 0.000000
vn -0.707162 0.000000 0.707051
vn -0.707162 0.000000 0.707051
vn -0.707162 0.000000 0.707051
vn -0.707162 0.000000 0.707051
vn -0.707113 0.707101 0.000000
vn -0.707113 0.707101 0.000000
vn -0.707113 0.707101 0.000000
vn -0.707113 0.707101 0.000000
vn -0.707114 0.707100 0.000000
vn -0.707114 0.707100 0.000000
vn -0.707114 0.707100 0.000000
vn -0.707114 0.707100 0.000000
vn -0.707114 0.707099 0.000000
vn -0.707114 0.707099 0.000000
vn -0.707114 0.707099 0.000000
vn -0.707114 0.707099 0.000000
vn -0.707114 0.707099 0.000000
vn -0.707114 0.707099 0.000000
vn -0.707114 0.707099 0.000000
vn -0.707114 0.707099 0.000000
vn -0.707114 0.707099 0.000000
vn -0.707114 0.707099 0.000000
vn -0.707114 0.707099 0.000000
vn -0.707114 0.707099 0.000000
vn -0.707114 0.707099 0.000000
vn -0.707114 0.707099 0.000000
vn -0.707114 0.707099 0.000000
vn -0.707114 0.707099 0.000000
vn -0.707114 0.707100 0.000000
vn -0.707114 0.707100 0.000000
vn -0.707114 0.707100 0.000000
vn -0.707114 0.707100 0.000000
vn -1.000000 -0.000001 0.000000
vn -1.000000 -0.000001 0.000000
vn -1.000000 -0.000001 0.000000
vn -1.000000 -0.000001 0.000000
vn -1.000000 -0.000001 0.000000
vn -1.000000 -0.000001 0.000000
vn -1.000000 -0.000001 0.000000
vn -1.000000 -0.000001 0.000000
vn -1.000000 -0.000001 0.000000
vn -1.000000 -0.000001 0.000000
vn -1.000000 -0.000001 0.000000
vn -1.000000 -0.000001 0.000000
vn 0.000000 0.000000 -1.000000
vn 0.000000 0.000000 -1.000000
vn 0.000000 0.000000 -1.000000
vn 0.000000 0.000000 -1.000000
vn -0.000001 0.000000 -1.000000
vn -0.000001 0.000000 -1.000000
vn -0.000001 0.000000 -1.000000
vn -0.000001 0.000000 -1.000000
vn -0.000003 -1.000000 0.000000
vn -0.000003 -1.000000 0.000000
vn -0.000003 -1.000000 0.000000
vn -0.000003 -1.000000 0.000000
vn 0.000000 0.000000 1.000000
vn 0.000000 0.000000 1.000000
vn 0.000000 0.000000 1.000000
vn 0.000000 0.000000 1.000000
vn 0.000000 1.000000 0.000000
vn 0.000000 1.000000 0.000000
vn 0.000000 1.000000 0.000000
vn 0.000000 1.000000 0.000000
vn 0.000000 1.000000 0.000000
vn 0.000000 1.000000 0.000000
vn 0.000000 1.000000 0.000000
vn 0.000000 1.000000 0.000000
vn 0.000000 1.000000 0.000000
vn 0.000000 1.000000 0.000000
vn 0.000000 1.000000 0.000000
vn 0.000000 1.000000 0.000000
vn 0.000000 1.000000 0.000000
vn 0.000000 1.000000 0.000000
vn 0.000000 1.000000 0.000000
vn 0.000000 1.000000 0.000000
vn 0.000000 1.000000 0.000000
vn 0.000000 1.000000 0.000000
vn 0.000000 1.000000 0.000000
vn 0.000000 1.000000 0.000000
vn 0.000000 1.000000 0.000000
vn 0.000000 1.000000 0.000000
vn 0.000000 1.000000 0.000000
vn 0.000000 1.000000 0.000000
vn 0.000000 1.000000 0.000000
vn 0.000000 1.000000 0.000000
vn 0.000000 1.000000 0.000000
vn 0.000000 1.000000 0.000000
vn 0.000000 1.000000 0.000000
vn 0.000000 1.000000 0.000000
vn 0.000000 1.000000 0.000000
vn 0.000000 1.000000 0.000000
s off
g polySurface30 polySurface29 polySurface27 polySurface19 polySurface16 pCube25
usemtl texturedFacets121
f 1/59/1 69/60/2 68/61/3 2/62/4
f 2/62/5 68/61/6 67/63/7 7/64/8
f 65/67/9 3/68/10 8/66/11 66/65/12
f 3/68/13 65/67/14 64/69/15 4/70/16
f 4/70/17 64/69/18 63/71/19 5/72/20
f 5/72/21 63/71/22 62/73/23 6/74/24
f 6/74/25 62/73/26 61/75/27 9/76/28
f 7/64/29 67/63/30 66/65/31 8/66/32
f 9/1/33 12/2/34 13/3/35 14/4/36
f 12/2/37 10/5/38 15/6/39 13/3/40
f 10/5/41 11/11/42 16/12/43 15/6/44
f 11/11/45 1/17/46 17/18/47 16/12/48
f 1/17/49 2/23/50 18/24/51 17/18/52
f 2/23/53 7/29/54 19/30/55 18/24/56
f 7/29/57 8/33/58 20/34/59 19/30/60
f 8/33/61 3/27/62 21/28/63 20/34/64
f 3/27/65 4/21/66 22/22/67 21/28/68
f 4/21/69 5/15/70 23/16/71 22/22/72
f 5/15/73 6/9/74 24/10/75 23/16/76
f 6/9/77 9/1/78 14/4/79 24/10/80
f 14/4/81 13/3/82 25/7/83 26/8/84
f 13/3/85 15/6/86 27/13/87 25/7/88
f 15/6/89 16/12/90 28/19/91 27/13/92
f 16/12/93 17/18/94 29/25/95 28/19/96
f 17/18/97 18/24/98 30/31/99 29/25/100
f 18/24/101 19/30/102 31/35/103 30/31/104
f 19/30/105 20/34/106 32/36/107 31/35/108
f 20/34/109 21/28/110 33/32/111 32/36/112
f 21/28/113 22/22/114 34/26/115 33/32/116
f 22/22/117 23/16/118 35/20/119 34/26/120
f 23/16/121 24/10/122 36/14/123 35/20/124
f 24/10/125 14/4/126 26/8/127 36/14/128
f 37/101/129 38/102/130 42/103/131 41/104/132
f 38/102/133 37/101/134 40/105/135 39/106/136
f 39/37/137 40/38/138 59/39/139 60/40/140
f 41/77/141 42/78/142 44/79/143 43/80/144
f 43/43/145 44/52/146 46/53/147 45/44/148
f 45/44/149 46/53/150 48/54/151 47/45/152
f 47/45/153 48/54/154 50/55/155 49/46/156
f 49/46/157 50/55/158 52/56/159 51/47/160
f 51/47/161 52/56/162 54/57/163 53/48/164
f 53/48/165 54/57/166 56/58/167 55/49/168
f 55/49/169 56/58/170 58/51/171 57/50/172
f 57/50/173 58/51/174 60/40/175 59/39/176
f 40/38/177 37/41/178 41/42/179 43/43/180 45/44/181 47/45/182 49/46/183 51/47/184 53/48/185 55/49/186 57/50/187 59/39/188
f 26/109/189 25/107/190 38/102/191 39/106/192
f 25/107/193 27/108/194 42/103/195 38/102/196
f 27/81/197 28/82/198 44/79/199 42/78/200
f 28/110/201 29/111/202 46/112/203 44/113/204
f 29/83/205 30/84/206 48/85/207 46/86/208
f 30/84/209 31/87/210 50/88/211 48/85/212
f 31/87/213 32/89/214 52/90/215 50/88/216
f 32/89/217 33/91/218 54/92/219 52/90/220
f 33/91/221 34/93/222 56/94/223 54/92/224
f 34/93/225 35/95/226 58/96/227 56/94/228
f 35/95/229 36/97/230 60/98/231 58/96/232
f 36/97/233 26/99/234 39/100/235 60/98/236
