# This file uses centimeters as units for non-parametric coordinates.

mtllib Soviet_Star.mtl
g default
v -0.000001 0.193430 -0.000000
v -5.704408 0.193430 7.851444
v -2.852204 0.193430 3.925722
v 5.704408 0.193430 7.851444
v 2.852204 0.193430 3.925722
v 9.229925 0.193430 -2.998986
v 4.614963 0.193430 -1.499501
v -0.000002 0.193430 -9.704919
v -0.000001 0.193430 -4.852459
v -9.229913 0.193430 -2.998990
v -4.614964 0.193430 -1.499492
v -11.408815 -1.262325 15.702888
v 11.408819 -1.262325 15.702892
v 8.556613 -1.262325 11.777165
v -8.556611 -1.262325 11.777166
v 5.704408 -1.262325 7.851451
v -5.704408 -1.262325 7.851444
v 2.852204 -1.262325 3.925722
v -2.852207 -1.262325 3.925722
v -0.000001 -1.262325 -0.000000
v 18.459852 -1.262325 -5.997972
v 13.844889 -1.262325 -4.498479
v 9.229925 -1.262325 -2.998986
v 4.614963 -1.262325 -1.499493
v -0.000003 -1.262325 -19.409838
v -0.000003 -1.262325 -14.557379
v -0.000002 -1.262325 -9.704919
v -0.000001 -1.262325 -4.852459
v -18.459854 -1.262325 -5.997966
v -13.844892 -1.262325 -4.498474
v -9.229928 -1.262325 -2.998983
v -4.614964 -1.262325 -1.499492
v -10.880034 0.193430 14.975083
v -11.408815 -0.534375 15.702888
v 10.880036 0.193430 14.975081
v 11.408817 -0.534375 15.702888
v -9.837530 0.193430 13.687555
v -9.013770 0.193430 12.553744
v 9.013771 0.193430 12.553744
v 9.837535 0.193430 13.687554
v 17.604267 0.193430 -5.719975
v 18.459852 -0.534375 -5.997972
v 14.584588 0.193430 -4.591471
v 15.917464 0.193430 -5.024546
v -0.000003 0.193430 -18.510221
v -0.000003 -0.534375 -19.409838
v -0.000003 0.193430 -15.187793
v -0.000003 0.193430 -16.589256
v -17.604269 0.193430 -5.719969
v -18.459854 -0.534375 -5.997966
v -14.584590 0.193430 -4.591464
v -15.917467 0.193430 -5.024540
vt 0.340829 0.290283
vt 0.302938 0.262754
vt 0.302938 0.097578
vt 0.340829 0.070048
vt 0.265048 0.235224
vt 0.265048 0.125107
vt 0.227157 0.207695
vt 0.227157 0.152636
vt 0.189266 0.180166
vt 0.145847 0.046535
vt 0.131374 0.001992
vt 0.160320 0.091079
vt 0.174793 0.135622
vt 0.048759 0.180166
vt 0.001923 0.180166
vt 0.095594 0.180166
vt 0.142430 0.180166
vt 0.145847 0.313796
vt 0.131374 0.358339
vt 0.160320 0.269252
vt 0.174793 0.224709
vt 0.424078 0.235224
vt 0.424078 0.125107
vt 0.461969 0.152636
vt 0.461969 0.207695
vt 0.499860 0.180166
vt 0.528806 0.091079
vt 0.514333 0.135622
vt 0.593531 0.180166
vt 0.546696 0.180166
vt 0.528806 0.269252
vt 0.514333 0.224709
vt 0.355321 0.285179
vt 0.348297 0.290283
vt 0.348297 0.070048
vt 0.355321 0.075152
vt 0.701508 0.001992
vt 0.708533 0.009017
vt 0.708533 0.208764
vt 0.701508 0.211448
vt 0.729229 0.333874
vt 0.722204 0.340898
vt 0.722204 0.131443
vt 0.729229 0.134126
vt 0.367748 0.275117
vt 0.378692 0.267166
vt 0.544177 0.320935
vt 0.548357 0.333800
vt 0.367748 0.085214
vt 0.378692 0.093165
vt 0.548357 0.026531
vt 0.544177 0.039396
vt 0.555069 0.010250
vt 0.557752 0.001992
vt 0.687203 0.180166
vt 0.678520 0.180166
vt 0.659979 0.180166
vt 0.646452 0.180166
vt 0.557752 0.358339
vt 0.555069 0.350081
vt 0.315812 0.923364
vt 0.308786 0.923364
vt 0.308786 0.703129
vt 0.315812 0.703129
vt 0.715178 0.340898
vt 0.715178 0.131443
vt 0.715178 0.001992
vt 0.722204 0.001992
vt 0.701508 0.340898
vt 0.694482 0.340898
vt 0.694482 0.211448
vt 0.694482 0.001992
vn 0.000000 -1.000000 0.000000
vn 0.000000 -1.000000 -0.000000
vn 0.000000 -1.000000 0.000000
vn 0.000000 -1.000000 0.000000
vn 0.000000 -1.000000 -0.000000
vn -0.000000 -1.000000 -0.000000
vn 0.000000 -1.000000 -0.000000
vn -0.000000 -1.000000 -0.000000
vn 0.000000 -1.000000 0.000000
vn 0.000000 -1.000000 0.000000
vn 0.000000 -1.000000 0.000000
vn -0.000000 -1.000000 0.000000
vn -0.000000 -1.000000 -0.000000
vn 0.000000 -1.000000 0.000000
vn 0.000000 -1.000000 0.000000
vn 0.000000 -1.000000 0.000000
vn 0.000000 -1.000000 0.000000
vn 0.000000 -1.000000 -0.000000
vn 0.000000 -1.000000 0.000000
vn 0.000000 -1.000000 -0.000000
vn 0.000000 -1.000000 0.000000
vn 0.000000 1.000000 -0.000000
vn -0.000000 1.000000 -0.000000
vn 0.000000 1.000000 0.000000
vn 0.000000 1.000000 0.000000
vn 0.000000 1.000000 0.000000
vn -0.000000 1.000000 0.000000
vn 0.000000 1.000000 0.000000
vn 0.000000 1.000000 0.000000
vn 0.000000 1.000000 0.000000
vn 0.000000 1.000000 0.000000
vn 0.000000 1.000000 0.000000
vn 0.000000 0.707107 0.707106
vn 0.000000 0.707107 0.707106
vn 0.000000 0.707107 0.707106
vn 0.000000 0.707107 0.707106
vn -0.672498 0.707107 0.218508
vn -0.672498 0.707107 0.218508
vn -0.672498 0.707107 0.218508
vn -0.672498 0.707107 0.218508
vn 0.672499 0.707107 0.218508
vn 0.672499 0.707107 0.218508
vn 0.672499 0.707107 0.218508
vn 0.672499 0.707107 0.218508
vn -0.000000 1.000000 0.000000
vn 0.000000 1.000000 -0.000000
vn 0.000000 1.000000 0.000000
vn -0.000000 1.000000 -0.000000
vn 0.000000 1.000000 0.000000
vn -0.000000 1.000000 -0.000000
vn 0.000000 1.000000 -0.000000
vn -0.000000 1.000000 0.000000
vn 0.415627 0.707106 -0.572062
vn 0.415627 0.707106 -0.572062
vn 0.415627 0.707106 -0.572062
vn 0.415627 0.707107 -0.572062
vn -0.000000 1.000000 -0.000000
vn 0.000000 1.000000 0.000000
vn -0.415627 0.707107 -0.572061
vn -0.415627 0.707107 -0.572061
vn -0.415627 0.707107 -0.572061
vn -0.415627 0.707107 -0.572061
vn -0.000000 1.000000 0.000000
vn 0.000000 1.000000 0.000000
vn 0.000000 1.000000 -0.000000
vn -0.000000 1.000000 -0.000000
vn -0.000000 1.000000 -0.000000
vn -0.000000 0.000003 1.000000
vn -0.000000 0.000003 1.000000
vn -0.000000 0.000003 1.000000
vn -0.000000 0.000003 1.000000
vn 0.951057 0.000004 0.309017
vn 0.951057 0.000004 0.309017
vn 0.951057 0.000004 0.309017
vn 0.951057 0.000004 0.309017
vn 0.587785 0.000000 -0.809017
vn 0.587785 0.000000 -0.809017
vn 0.587785 0.000000 -0.809017
vn 0.587785 0.000000 -0.809017
vn -0.587785 0.000000 -0.809017
vn -0.587785 0.000000 -0.809017
vn -0.587785 0.000000 -0.809017
vn -0.587785 0.000000 -0.809017
vn -0.951057 0.000000 0.309017
vn -0.951057 0.000000 0.309017
vn -0.951057 0.000000 0.309017
vn -0.951057 0.000000 0.309017
s 1
g polySurface1 pDisc2
usemtl texturedFacets1
f 12/1/1 15/2/2 14/3/3 13/4/4
f 15/2/2 17/5/5 16/6/6 14/3/3
f 17/5/5 19/7/7 18/8/8 16/6/6
f 19/7/7 20/9/9 18/8/8
f 13/4/4 14/3/3 22/10/10 21/11/11
f 14/3/3 16/6/6 23/12/12 22/10/10
f 16/6/6 18/8/8 24/13/13 23/12/12
f 18/8/8 20/9/9 24/13/13
f 21/11/11 22/10/10 26/14/14 25/15/15
f 22/10/10 23/12/12 27/16/16 26/14/14
f 23/12/12 24/13/13 28/17/17 27/16/16
f 24/13/13 20/9/9 28/17/17
f 25/15/15 26/14/14 30/18/18 29/19/19
f 26/14/14 27/16/16 31/20/20 30/18/18
f 27/16/16 28/17/17 32/21/21 31/20/20
f 28/17/17 20/9/9 32/21/21
f 29/19/19 30/18/18 15/2/2 12/1/1
f 30/18/18 31/20/20 17/5/5 15/2/2
f 31/20/20 32/21/21 19/7/7 17/5/5
f 32/21/21 20/9/9 19/7/7
s 2
f 2/22/22 4/23/23 5/24/24 3/25/25
f 3/25/25 5/24/24 1/26/26
f 4/23/23 6/27/27 7/28/28 5/24/24
f 5/24/24 7/28/28 1/26/26
f 6/27/27 8/29/29 9/30/30 7/28/28
f 7/28/28 9/30/30 1/26/26
f 8/29/29 10/31/31 11/32/32 9/30/30
f 9/30/30 11/32/32 1/26/26
f 10/31/31 2/22/22 3/25/25 11/32/32
f 11/32/32 3/25/25 1/26/26
s off
f 33/33/33 34/34/34 36/35/35 35/36/36
f 34/37/37 33/38/38 49/39/39 50/40/40
f 35/41/41 36/42/42 42/43/43 41/44/44
s 2
f 37/45/45 38/46/46 51/47/47 52/48/48
f 38/46/46 37/45/45 40/49/49 39/50/50
f 39/50/50 40/49/49 44/51/51 43/52/52
s off
f 41/53/53 42/54/54 46/55/55 45/56/56
s 2
f 43/52/52 44/51/51 48/57/57 47/58/58
s off
f 45/56/59 46/55/60 50/59/61 49/60/62
s 2
f 47/58/58 48/57/57 52/48/48 51/47/47
f 33/33/63 35/36/64 40/49/49 37/45/45
f 38/46/46 39/50/50 4/23/23 2/22/22
f 35/36/64 41/53/65 44/51/51 40/49/49
f 39/50/50 43/52/52 6/27/27 4/23/23
f 41/53/65 45/56/66 48/57/57 44/51/51
f 43/52/52 47/58/58 8/29/29 6/27/27
f 45/56/66 49/60/67 52/48/48 48/57/57
f 47/58/58 51/47/47 10/31/31 8/29/29
f 49/60/67 33/33/63 37/45/45 52/48/48
f 51/47/47 38/46/46 2/22/22 10/31/31
s off
f 34/61/68 12/62/69 13/63/70 36/64/71
f 36/42/72 13/65/73 21/66/74 42/43/75
f 42/43/76 21/66/77 25/67/78 46/68/79
f 46/69/80 25/70/81 29/71/82 50/40/83
f 50/40/84 29/71/85 12/72/86 34/37/87
g default
v -10.116428 0.106751 13.924068
v -10.116481 0.106751 13.924107
v -7.318789 0.106751 5.317411
v 0.000000 0.106751 0.000000
v -2.795520 0.106751 8.603725
v 9.046504 0.106751 0.000000
v 6.250470 0.106751 2.030901
v 2.795525 0.106751 8.603744
v -0.000000 0.106751 6.572140
v 3.863015 0.106751 -5.316962
v 0.000000 2.433438 0.000000
v 16.368782 0.106751 -5.318540
v 7.318772 0.106751 -5.317398
v 16.368782 0.106751 -5.318539
v -0.000007 0.106751 6.572135
v 7.318773 0.106751 5.317400
v 10.116460 0.106751 13.924113
v 6.250469 0.106751 2.030901
v 10.116462 0.106751 13.924120
v 3.863010 0.106751 -5.316978
v -6.250478 0.106751 2.030903
v -6.250475 0.106751 2.030895
v 2.795532 0.106751 -8.603763
v -7.318794 0.106751 -5.317415
v -3.863009 0.106751 -5.316976
v -9.046491 0.106751 0.000000
v -2.795517 0.106751 -8.603718
v 0.000000 0.106751 -17.211052
v -16.368706 0.106751 -5.318514
v 0.000033 0.106751 -17.211153
v -3.862996 0.106751 -5.316976
v -16.368776 0.106751 -5.318566
vt 0.310421 0.617826
vt 0.310421 0.617827
vt 0.227350 0.590824
vt 0.176026 0.520183
vt 0.259069 0.547165
vt 0.176026 0.432867
vt 0.195629 0.459854
vt 0.259069 0.493201
vt 0.239460 0.520183
vt 0.187637 0.802732
vt 0.136318 0.840017
vt 0.187652 0.682027
vt 0.187641 0.769377
vt 0.124692 0.362192
vt 0.239460 0.520183
vt 0.124703 0.449543
vt 0.124692 0.362192
vt 0.227350 0.449543
vt 0.310421 0.422539
vt 0.072884 0.840017
vt 0.001923 0.937661
vt 0.001924 0.937661
vt 0.053275 0.867000
vt 0.195629 0.459854
vt 0.310421 0.422539
vt 0.001923 0.742374
vt 0.072884 0.840017
vt 0.053275 0.813035
vt 0.116716 0.779688
vt 0.116716 0.779688
vt 0.136318 0.752701
vt 0.187652 0.682027
vt 0.001923 0.742374
vt 0.084995 0.769377
vt 0.124707 0.482897
vt 0.124707 0.482897
vt 0.195629 0.580512
vt 0.116716 0.900347
vt 0.116716 0.900347
vt 0.084995 0.910658
vt 0.092983 0.493201
vt 0.124703 0.590824
vt 0.124707 0.557469
vt 0.195629 0.580512
vt 0.176026 0.607499
vt 0.092984 0.547165
vt 0.009906 0.520183
vt 0.124692 0.678173
vt 0.302439 0.840017
vt 0.187637 0.802732
vt 0.219361 0.813035
vt 0.124707 0.557468
vt 0.009905 0.520183
vt 0.124692 0.678174
vt 0.187652 0.998008
vt 0.187637 0.877303
vt 0.187637 0.877303
vt 0.187641 0.910658
vt 0.302438 0.840017
vt 0.219361 0.867000
vt 0.187652 0.998007
vt 0.136318 0.927334
vn 0.000000 -1.000000 0.000000
vn 0.000000 -1.000000 0.000000
vn 0.000000 -1.000000 0.000000
vn 0.000000 -1.000000 0.000000
vn 0.000000 -1.000000 0.000000
vn 0.000000 -1.000000 -0.000000
vn 0.000000 -1.000000 0.000000
vn 0.000000 -1.000000 0.000000
vn 0.000000 -1.000000 -0.000000
vn 0.196034 0.942670 -0.270082
vn 0.196160 0.942670 -0.269990
vn -0.000051 0.916111 -0.400924
vn -0.000051 0.916111 -0.400924
vn 0.000000 -1.000000 -0.000000
vn 0.000000 -1.000000 -0.000000
vn 0.000000 -1.000000 0.000000
vn 0.000000 -1.000000 0.000000
vn 0.000000 -1.000000 0.000000
vn 0.000000 -1.000000 0.000000
vn -0.000701 0.942670 0.333727
vn -0.000000 0.942670 0.333727
vn 0.235697 0.916112 0.324325
vn 0.235697 0.916111 0.324325
vn 0.235697 0.916112 0.324325
vn 0.000000 -1.000000 0.000000
vn 0.000000 -1.000000 0.000000
vn -0.235698 0.916112 0.324324
vn -0.235698 0.916112 0.324324
vn -0.235698 0.916112 0.324324
vn 0.235616 0.916111 0.324384
vn 0.317393 0.942670 0.103127
vn 0.317638 0.942670 0.102375
vn 0.235616 0.916111 0.324384
vn 0.235616 0.916111 0.324384
vn 0.235616 0.916111 0.324384
vn 0.381286 0.916111 -0.123940
vn 0.381286 0.916111 -0.123940
vn 0.381286 0.916111 -0.123940
vn 0.000000 -1.000000 0.000000
vn 0.000000 -1.000000 0.000000
vn 0.000000 -1.000000 0.000000
vn -0.381285 0.916111 -0.123941
vn -0.317393 0.942670 0.103127
vn -0.317647 0.942670 0.102346
vn -0.381285 0.916111 -0.123941
vn -0.381285 0.916111 -0.123941
vn 0.000000 -1.000000 0.000000
vn 0.000000 -1.000000 -0.000000
vn 0.000000 -1.000000 -0.000000
vn 0.000000 -1.000000 0.000000
vn 0.000000 -1.000000 0.000000
vn 0.000000 -1.000000 0.000000
vn 0.000000 -1.000000 0.000000
vn 0.000000 -1.000000 0.000000
vn 0.381317 0.916112 -0.123844
vn 0.381317 0.916111 -0.123844
vn 0.381317 0.916112 -0.123844
vn 0.000000 -1.000000 0.000000
vn 0.000000 -1.000000 0.000000
vn 0.000000 -1.000000 0.000000
vn 0.000051 0.916111 -0.400924
vn -0.196159 0.942670 -0.269991
vn -0.196164 0.942670 -0.269987
vn 0.000051 0.916112 -0.400924
vn 0.000051 0.916112 -0.400924
vn -0.381316 0.916111 -0.123845
vn -0.381316 0.916112 -0.123845
vn -0.381316 0.916112 -0.123845
vn -0.235617 0.916112 0.324383
vn -0.235617 0.916112 0.324383
vn -0.235617 0.916112 0.324383
s 1
g pDisc2 polySurface2
usemtl texturedFacets1
f 53/73/88 54/74/89 55/75/90 56/76/91
f 57/77/92 53/73/88 56/76/91
f 58/78/93 59/79/94 56/76/91
f 60/80/95 61/81/96 56/76/91
s 3
f 62/82/97 63/83/98 64/84/99 65/85/100
s 1
f 66/86/101 58/78/93 56/76/91
f 61/81/96 67/87/102 57/77/92 56/76/91
f 65/88/103 64/89/104 66/86/101 56/76/91
f 68/90/105 69/91/106 56/76/91
s 4
f 67/92/107 63/83/108 54/93/109 53/94/110 57/95/111
s 1
f 59/79/94 70/96/112 68/90/105 56/76/91
f 69/91/106 71/97/113 60/80/95 56/76/91
s 4
f 71/98/114 63/83/108 67/92/107 61/99/115 60/100/116
s 5
f 64/84/117 63/83/118 70/101/119 59/102/120 58/103/121 66/104/122
f 70/101/119 63/83/118 71/98/123 69/105/124 68/106/125
s 1
f 72/107/126 62/108/127 65/88/103 56/76/91
f 55/75/90 73/109/128 56/76/91
s 6
f 54/93/129 63/83/130 74/110/131 73/111/132 55/112/133
s 1
f 75/113/134 72/107/126 56/76/91
f 76/114/135 77/115/136 56/76/91
f 73/109/128 74/116/137 78/117/138 56/76/91
f 79/118/139 80/119/140 56/76/91
f 78/117/138 81/120/141 56/76/91
s 3
f 82/121/142 63/83/98 62/82/97 72/122/143 75/123/144
s 1
f 77/115/136 83/124/145 79/118/139 56/76/91
f 80/119/140 82/125/146 75/113/134 56/76/91
f 81/120/141 84/126/147 76/114/135 56/76/91
s 8
f 84/127/148 63/83/149 83/128/150 77/129/151 76/130/152
f 83/128/150 63/83/149 82/121/153 80/131/154 79/132/155
s 6
f 74/110/131 63/83/130 84/127/156 81/133/157 78/134/158
g default
v -10.792036 0.106751 14.853963
v -10.792092 0.106751 14.854003
v -7.807562 0.106751 5.672525
v 0.000000 0.106751 0.000000
v -2.982214 0.106751 9.178310
v 9.650659 0.106751 0.000000
v 6.667896 0.106751 2.166531
v 4.121000 0.106751 -5.672046
v 0.000000 1.450305 0.000000
v 17.461943 0.106751 -5.673729
v 7.807543 0.106751 -5.672511
v 2.982219 0.106751 9.178329
v -0.000000 0.106751 7.011048
v 17.461943 0.106751 -5.673728
v -0.000007 0.106751 7.011043
v 7.807545 0.106751 5.672514
v 10.792069 0.106751 14.854011
v 6.667895 0.106751 2.166532
v 10.792071 0.106751 14.854016
v 4.120995 0.106751 -5.672063
v -6.667905 0.106751 2.166533
v 2.982227 0.106751 -9.178349
v -6.667902 0.106751 2.166524
v -7.807567 0.106751 -5.672529
v -4.120993 0.106751 -5.672060
v -9.650644 0.106751 0.000000
v -2.982211 0.106751 -9.178302
v 0.000000 0.106751 -18.360462
v -17.461857 0.106751 -5.673701
v -4.120979 0.106751 -5.672060
v 0.000035 0.106751 -18.360571
v -17.461935 0.106751 -5.673757
vt 0.963437 0.634898
vt 0.963438 0.634899
vt 0.874819 0.606092
vt 0.820068 0.530734
vt 0.908656 0.559518
vt 0.820068 0.437587
vt 0.840979 0.466376
vt 0.514461 0.490958
vt 0.459714 0.530734
vt 0.514477 0.362192
vt 0.514465 0.455376
vt 0.908656 0.501950
vt 0.887738 0.530734
vt 0.765305 0.362192
vt 0.887738 0.530734
vt 0.765317 0.455376
vt 0.765305 0.362192
vt 0.392044 0.530734
vt 0.316344 0.634899
vt 0.316345 0.634898
vt 0.371126 0.559518
vt 0.874818 0.455376
vt 0.963438 0.426570
vt 0.840979 0.466376
vt 0.963438 0.426570
vt 0.316344 0.426570
vt 0.392044 0.530734
vt 0.371126 0.501950
vt 0.438803 0.466376
vt 0.438803 0.466376
vt 0.459714 0.437587
vt 0.514477 0.362192
vt 0.316344 0.426570
vt 0.404964 0.455376
vt 0.765321 0.490959
vt 0.765321 0.490959
vt 0.840979 0.595092
vt 0.731479 0.501950
vt 0.438803 0.595092
vt 0.438803 0.595092
vt 0.404963 0.606092
vt 0.765317 0.606092
vt 0.765321 0.570510
vt 0.840979 0.595092
vt 0.820068 0.623882
vt 0.731479 0.559518
vt 0.642853 0.530734
vt 0.765305 0.699275
vt 0.765321 0.570510
vt 0.636930 0.530734
vt 0.514461 0.490959
vt 0.548303 0.501950
vt 0.642852 0.530734
vt 0.765305 0.699276
vt 0.514477 0.699276
vt 0.514461 0.570510
vt 0.514461 0.570510
vt 0.514465 0.606092
vt 0.636929 0.530734
vt 0.548303 0.559518
vt 0.514477 0.699275
vt 0.459714 0.623882
vn 0.000000 -1.000000 0.000000
vn 0.000000 -1.000000 0.000000
vn 0.000000 -1.000000 0.000000
vn 0.000000 -1.000000 -0.000000
vn 0.000000 -1.000000 0.000000
vn 0.000000 -1.000000 0.000000
vn 0.000000 -1.000000 -0.000000
vn 0.110861 0.982129 -0.152094
vn -0.000000 1.000000 0.000000
vn 0.109560 0.988620 0.103084
vn -0.000029 0.973069 -0.230515
vn 0.000000 -1.000000 0.000000
vn 0.000000 -1.000000 -0.000000
vn 0.000000 -1.000000 -0.000000
vn 0.000000 -1.000000 -0.000000
vn 0.000000 -1.000000 -0.000000
vn 0.000000 -1.000000 -0.000000
vn -0.000860 0.982129 0.188209
vn -0.040244 0.997328 0.060970
vn 0.135516 0.973069 0.186473
vn 0.135516 0.973069 0.186473
vn 0.000000 -1.000000 -0.000000
vn 0.000000 -1.000000 0.000000
vn 0.000000 -1.000000 -0.000000
vn 0.000000 -1.000000 0.000000
vn 0.040825 0.997330 0.060548
vn -0.135516 0.973069 0.186473
vn -0.135516 0.973069 0.186473
vn 0.177508 0.982118 0.062737
vn 0.135470 0.973069 0.186507
vn 0.135470 0.973069 0.186507
vn 0.135470 0.973069 0.186507
vn 0.219223 0.973069 -0.071260
vn 0.219223 0.973069 -0.071260
vn 0.000000 -1.000000 0.000000
vn 0.000000 -1.000000 -0.000000
vn 0.000000 -1.000000 0.000000
vn 0.000000 -1.000000 -0.000000
vn -0.178918 0.982129 0.058403
vn -0.219223 0.973069 -0.071261
vn -0.219223 0.973069 -0.071261
vn 0.000000 -1.000000 0.000000
vn 0.000000 -1.000000 0.000000
vn 0.000000 -1.000000 0.000000
vn 0.000000 -1.000000 -0.000000
vn 0.000000 -1.000000 0.000000
vn 0.000000 -1.000000 -0.000000
vn 0.000000 -1.000000 -0.000000
vn 0.000000 -1.000000 0.000000
vn 0.000722 0.997333 -0.072981
vn 0.219241 0.973069 -0.071205
vn 0.219241 0.973069 -0.071205
vn 0.000000 -1.000000 -0.000000
vn 0.000000 -1.000000 0.000000
vn -0.068935 0.997332 -0.024012
vn -0.110629 0.982129 -0.152262
vn 0.000029 0.973069 -0.230514
vn 0.000029 0.973069 -0.230514
vn -0.219241 0.973069 -0.071206
vn -0.219241 0.973069 -0.071206
vn -0.135470 0.973069 0.186507
vn -0.135470 0.973069 0.186507
s 1
g pDisc2 polySurface3
usemtl texturedFacets1
f 85/135/159 86/136/160 87/137/161 88/138/162
f 89/139/163 85/135/159 88/138/162
f 90/140/164 91/141/165 88/138/162
s 3
f 92/142/166 93/143/167 94/144/168 95/145/169
s 1
f 96/146/170 97/147/171 88/138/162
f 98/148/172 90/140/164 88/138/162
f 97/147/171 99/149/173 89/139/163 88/138/162
f 95/150/174 94/151/175 98/148/172 88/138/162
s 3
f 99/152/176 93/143/167 86/153/177 85/154/178 89/155/179
s 1
f 100/156/180 101/157/181 88/138/162
f 91/141/165 102/158/182 100/156/180 88/138/162
f 101/157/181 103/159/183 96/146/170 88/138/162
s 3
f 103/160/184 93/143/167 99/152/176 97/161/185 96/162/186
f 94/144/168 93/143/167 102/163/187 91/164/188 90/165/189 98/166/190
f 102/163/187 93/143/167 103/160/184 101/167/191 100/168/192
s 1
f 104/169/193 92/170/194 95/150/174 88/138/162
f 87/137/161 105/171/195 88/138/162
f 106/172/196 104/169/193 88/138/162
s 3
f 86/153/177 93/143/167 107/173/197 105/174/198 87/175/199
s 1
f 108/176/200 109/177/201 88/138/162
f 105/171/195 107/178/202 110/179/203 88/138/162
f 111/180/204 112/181/205 88/138/162
f 110/179/203 113/182/206 88/138/162
f 109/177/201 114/183/207 111/180/204 88/138/162
s 3
f 115/184/208 93/143/167 92/142/166 104/185/209 106/186/210
s 1
f 112/181/205 115/187/211 106/172/196 88/138/162
f 113/182/206 116/188/212 108/176/200 88/138/162
s 3
f 116/189/213 93/143/167 114/190/214 109/191/215 108/192/216
f 114/190/214 93/143/167 115/184/208 112/193/217 111/194/218
f 107/173/197 93/143/167 116/189/213 113/195/219 110/196/220
