# This file uses centimeters as units for non-parametric coordinates.

mtllib level_1_e_door.mtl
g default
v -11.514828 262.406921 838.520142
v -12.358973 260.368988 838.520142
v -9.476883 263.251038 838.520142
v -12.358973 260.368988 831.646729
v -11.514828 262.406921 831.646729
v -9.476883 263.251038 831.646729
v -1.673608 262.406921 838.520142
v -3.711553 263.251038 838.520142
v -0.829463 260.368988 838.520142
v -0.829463 260.368988 831.646729
v -3.711553 263.251038 831.646729
v -1.673608 262.406921 831.646729
v -11.514828 251.930328 838.520142
v -9.476883 251.086121 838.520142
v -12.358973 253.968170 838.520142
v -11.514828 251.930328 831.646729
v -12.358973 253.968170 831.646729
v -9.476883 251.086121 831.646729
v -1.673608 251.930328 838.520142
v -0.829463 253.968170 838.520142
v -3.711553 251.086121 838.520142
v -1.673608 251.930328 831.646729
v -3.711553 251.086121 831.646729
v -0.829463 253.968170 831.646729
v 184.436371 179.285400 833.016602
v -181.098557 173.403687 834.361328
v -181.098557 179.134583 834.361328
v 181.098557 173.403687 834.361328
v 181.098557 179.134552 834.361328
v -181.098557 175.594696 834.361328
v -181.098557 176.943604 834.361328
v 181.098557 175.594696 834.361328
v 181.098557 176.943573 834.361328
v -182.618713 175.594696 832.841187
v -182.618713 176.943604 832.841187
v 182.618713 175.594696 832.841187
v 182.618713 176.943573 832.841187
v -61.343300 173.252899 829.971863
v -61.343300 139.276886 829.971863
v 61.343300 139.276886 829.971863
v 61.343300 173.252899 829.971863
v 1.749724 304.127472 833.084961
v -5.605216 305.158081 834.101929
v -182.609131 173.252899 829.971863
v -182.335861 173.252899 829.971863
v -183.165421 173.310303 831.643250
v -182.609131 139.276886 829.971863
v -182.767624 179.209991 833.688904
v -182.609055 179.285400 833.016602
v 182.344513 173.252899 829.971863
v 183.122391 173.252899 829.971863
v 183.522430 173.294189 831.173767
v 183.122391 139.276886 829.971863
v 129.988251 236.725128 833.016602
v 112.726608 245.951721 833.016602
v 145.082367 224.337708 833.016602
v 181.565033 187.792084 833.016602
v 184.436371 179.360535 833.016602
v 4.568395 301.785889 833.035278
v 3.768616 301.314331 833.016602
v -89.814713 292.070801 833.016602
v -78.106575 293.748474 833.016602
v -136.647186 285.360138 833.016602
v -124.939049 287.037781 833.016602
v -42.982227 298.781586 833.016602
v -31.274103 300.459229 833.016602
v -66.398468 295.426239 833.016602
v -54.690350 297.103882 833.016602
v -160.063400 282.004730 833.016602
v -148.355316 283.682434 833.016602
v -113.230949 288.715454 833.016602
v -101.522812 290.393127 833.016602
v -19.565985 302.136902 833.016602
v -171.771561 280.327087 833.016602
v -11.034897 304.569122 833.016602
v -181.649841 278.911591 833.016602
v -182.876724 139.276917 829.971863
v 183.314819 139.276917 829.971863
vt 0.883607 0.006477
vt 0.907289 0.006477
vt 0.907289 0.023876
vt 0.883607 0.023876
vt 0.883607 0.000938
vt 0.907289 0.000938
vt 0.883607 0.029415
vt 0.907289 0.029415
vt 0.914198 0.006477
vt 0.937880 0.006477
vt 0.937880 0.023876
vt 0.914198 0.023876
vt 0.937880 0.000938
vt 0.914198 0.000938
vt 0.937880 0.029415
vt 0.914198 0.029415
vt 0.968471 0.022149
vt 0.944789 0.022149
vt 0.944789 0.006478
vt 0.968471 0.006478
vt 0.944789 0.027688
vt 0.968471 0.027688
vt 0.944789 0.000938
vt 0.968471 0.000938
vt 0.999062 0.022149
vt 0.975380 0.022149
vt 0.975380 0.006478
vt 0.999062 0.006478
vt 0.999062 0.027688
vt 0.975380 0.027688
vt 0.999062 0.000938
vt 0.975380 0.000938
vt 0.005572 0.000938
vt 0.005572 0.998631
vt 0.003255 0.999062
vt 0.000938 0.994525
vt 0.000938 0.010011
vt 0.497689 0.989584
vt 0.497689 0.005070
vt 0.502927 0.000938
vt 0.502927 0.993716
vt 0.514693 0.005070
vt 0.514693 0.989584
vt 0.509455 0.993716
vt 0.509455 0.000938
vt 0.456385 0.997659
vt 0.450626 0.995404
vt 0.450626 0.004140
vt 0.454767 0.000938
vt 0.465750 0.007527
vt 0.465750 0.992041
vt 0.831003 0.003233
vt 0.833911 0.008772
vt 0.833911 0.026171
vt 0.831003 0.031710
vt 0.823981 0.034005
vt 0.804117 0.034005
vt 0.797095 0.031710
vt 0.794187 0.026171
vt 0.794187 0.008772
vt 0.797095 0.003233
vt 0.804117 0.000938
vt 0.823981 0.000938
vt 0.875713 0.031710
vt 0.868691 0.034005
vt 0.848827 0.034005
vt 0.841805 0.031710
vt 0.838897 0.026171
vt 0.838897 0.008772
vt 0.841805 0.003233
vt 0.848827 0.000938
vt 0.868691 0.000938
vt 0.875713 0.003233
vt 0.878621 0.008772
vt 0.878621 0.026171
vt 0.485923 0.993716
vt 0.485923 0.000938
vt 0.490571 0.000938
vt 0.490571 0.993716
vt 0.521221 0.985452
vt 0.521221 0.000938
vt 0.528770 0.000938
vt 0.528770 0.985452
vt 0.542889 0.000938
vt 0.542889 0.985452
vt 0.535340 0.985452
vt 0.535340 0.000938
vt 0.788885 0.330560
vt 0.671823 0.330560
vt 0.671823 0.000938
vt 0.788885 0.000938
vt 0.549459 0.000938
vt 0.666521 0.000938
vt 0.666521 0.331955
vt 0.549459 0.331955
vt 0.471804 0.995582
vt 0.471804 0.996310
vt 0.471804 0.000938
vt 0.471804 0.001461
vt 0.471804 0.332478
vt 0.471804 0.665961
vt 0.478864 0.000938
vt 0.478864 0.003053
vt 0.478864 0.994316
vt 0.478864 0.995059
vt 0.478864 0.665438
vt 0.478864 0.331955
vt 0.431032 0.492024
vt 0.432656 0.489850
vt 0.440724 0.497512
vt 0.444275 0.517504
vt 0.442246 0.532263
vt 0.208492 0.148938
vt 0.240282 0.195858
vt 0.433866 0.555452
vt 0.428085 0.587276
vt 0.422305 0.619101
vt 0.416525 0.650926
vt 0.410744 0.682750
vt 0.404964 0.714575
vt 0.399183 0.746400
vt 0.393403 0.778224
vt 0.387623 0.810049
vt 0.381842 0.841874
vt 0.376062 0.873698
vt 0.370281 0.905523
vt 0.364501 0.937348
vt 0.358721 0.969172
vt 0.353844 0.996023
vt 0.010586 0.998631
vt 0.010586 0.000938
vt 0.010845 0.000938
vt 0.039896 0.008743
vt 0.165812 0.107909
vn -0.107547 0.994200 0.000000
vn -0.107547 0.994200 0.000000
vn 0.107547 0.994200 0.000000
vn 0.107547 0.994200 0.000000
vn -0.107559 -0.994199 0.000000
vn -0.107559 -0.994199 0.000000
vn 0.107559 -0.994199 0.000000
vn 0.107559 -0.994199 0.000000
vn 0.995034 -0.099536 0.000000
vn 0.995034 -0.099536 0.000000
vn 0.995034 0.099535 0.000000
vn 0.995034 0.099535 0.000000
vn -0.995034 -0.099536 0.000000
vn -0.995034 -0.099536 0.000000
vn -0.995034 0.099535 0.000000
vn -0.995034 0.099535 0.000000
vn -0.995034 0.099535 0.000000
vn -0.923879 0.382685 0.000000
vn -0.923879 0.382685 0.000000
vn -0.995034 0.099535 0.000000
vn -0.382673 0.923884 0.000000
vn -0.107547 0.994200 0.000000
vn -0.107547 0.994200 0.000000
vn -0.382673 0.923884 0.000000
vn 0.107547 0.994200 0.000000
vn 0.382673 0.923884 0.000000
vn 0.382673 0.923884 0.000000
vn 0.107547 0.994200 0.000000
vn 0.923879 0.382686 0.000000
vn 0.995034 0.099535 0.000000
vn 0.995034 0.099535 0.000000
vn 0.923879 0.382686 0.000000
vn -0.107559 -0.994199 0.000000
vn -0.382708 -0.923869 0.000000
vn -0.382708 -0.923869 0.000000
vn -0.107559 -0.994199 0.000000
vn -0.923873 -0.382700 0.000000
vn -0.995034 -0.099536 0.000000
vn -0.995034 -0.099536 0.000000
vn -0.923873 -0.382700 0.000000
vn 0.995034 -0.099536 0.000000
vn 0.923873 -0.382700 0.000000
vn 0.923873 -0.382700 0.000000
vn 0.995034 -0.099536 0.000000
vn 0.382708 -0.923869 0.000000
vn 0.107559 -0.994199 0.000000
vn 0.107559 -0.994199 0.000000
vn 0.382708 -0.923869 0.000000
vn 0.000000 0.000000 1.000000
vn 0.000000 0.000000 1.000000
vn 0.000000 0.000000 1.000000
vn 0.000000 0.000000 1.000000
vn 0.000000 0.000000 1.000000
vn 0.000000 0.000000 1.000000
vn 0.000000 0.000000 1.000000
vn 0.000000 0.000000 1.000000
vn 0.000000 0.000000 1.000000
vn 0.000000 0.000000 1.000000
vn 0.000000 0.000000 1.000000
vn 0.000000 0.000000 1.000000
vn 0.000000 0.000000 -1.000000
vn 0.000000 0.000000 -1.000000
vn 0.000000 0.000000 -1.000000
vn 0.000000 0.000000 -1.000000
vn 0.000000 0.000000 -1.000000
vn 0.000000 0.000000 -1.000000
vn 0.000000 0.000000 -1.000000
vn 0.000000 0.000000 -1.000000
vn 0.000000 0.000000 -1.000000
vn 0.000000 0.000000 -1.000000
vn 0.000000 0.000000 -1.000000
vn 0.000000 0.000000 -1.000000
vn 0.000000 0.000000 1.000000
vn 0.000000 0.000000 1.000000
vn 0.000000 0.000000 1.000000
vn 0.000000 0.000000 1.000000
vn -0.040802 0.999109 0.010795
vn 0.000043 0.993772 0.111433
vn 0.035771 0.999087 0.023366
vn 0.030794 0.998892 0.035585
vn -0.030831 0.998894 0.035507
vn 0.000000 0.000000 1.000000
vn 0.000000 0.000000 1.000000
vn 0.000000 0.000000 1.000000
vn 0.000000 0.000000 1.000000
vn 0.000000 0.000000 1.000000
vn 0.000000 0.000000 1.000000
vn 0.000000 0.000000 1.000000
vn 0.000000 0.000000 1.000000
vn 0.000000 1.000000 -0.000002
vn 0.000000 1.000000 -0.000002
vn 0.000000 1.000000 -0.000002
vn 0.000000 1.000000 -0.000002
vn 0.000000 -1.000000 -0.000008
vn 0.000000 -1.000000 -0.000008
vn 0.000000 -1.000000 -0.000008
vn 0.000000 -1.000000 -0.000008
vn 0.000000 0.000000 1.000000
vn 0.000000 0.000000 1.000000
vn 0.000000 0.000000 1.000000
vn 0.000000 0.000000 1.000000
vn 0.000000 0.000000 1.000000
vn 0.000000 0.000000 1.000000
vn 0.000000 0.000000 1.000000
vn 0.000000 0.000000 1.000000
vn 0.022187 -0.999601 0.017492
vn 0.000018 -0.999410 0.034349
vn -0.000006 -0.999410 0.034345
vn -0.024084 -0.999581 0.016042
vn -0.023109 -0.999592 0.016771
vn 0.023102 -0.999592 0.016776
vn 0.000000 0.000000 1.000000
vn 0.000000 0.000000 0.000000
vn 0.000000 0.000000 0.000000
vn 0.000000 0.000000 1.000000
vn 0.000000 0.000000 1.000000
vn 0.000000 0.000000 1.000000
vn 0.000000 0.000000 0.000000
vn 0.000000 0.000000 -1.000000
vn 0.000000 0.000000 -1.000000
vn 0.000000 0.000000 0.000000
vn 0.000000 0.000000 -1.000000
vn 0.000000 0.000000 -1.000000
vn -0.000009 -0.000177 1.000000
vn -0.015135 -0.290010 0.956904
vn -0.128886 -0.964016 0.232513
vn -0.041070 -0.991366 0.124529
vn -0.000002 -0.000031 1.000000
vn 0.000000 0.000000 1.000000
vn 0.000000 0.000000 1.000000
vn -0.000009 -0.000177 1.000000
vn -0.000002 -0.000031 1.000000
vn 0.000000 0.000000 1.000000
vn 0.000000 0.000000 1.000000
vn 0.000000 0.000000 1.000000
vn 0.000000 0.000000 1.000000
vn 0.000000 0.000000 1.000000
vn 0.000000 0.000000 1.000000
vn 0.000000 0.000000 1.000000
vn 0.000000 0.000000 1.000000
vn 0.000000 0.000000 1.000000
vn 0.000000 0.000000 1.000000
vn 0.000000 0.000000 1.000000
vn 0.000000 0.000000 1.000000
vn 0.000000 0.000000 1.000000
vn 0.000000 0.000000 1.000000
vn 0.000000 0.000000 1.000000
vn 0.000000 0.000000 1.000000
vn 0.000000 0.000000 1.000000
vn 0.000000 0.000000 1.000000
vn 0.000000 0.000000 1.000000
vn 0.000000 0.000000 1.000000
s off
g polySurface50
usemtl texturedFacets170
f 6/17/1 3/18/2 8/19/3 11/20/4
f 14/25/5 18/26/6 23/27/7 21/28/8
f 20/1/9 24/2/10 10/3/11 9/4/12
f 17/9/13 15/10/14 2/11/15 4/12/16
f 2/11/17 1/15/18 5/16/19 4/12/20
f 1/21/21 3/18/22 6/17/23 5/22/24
f 8/19/25 7/23/26 12/24/27 11/20/28
f 7/7/29 9/4/30 10/3/31 12/8/32
f 14/25/33 13/29/34 16/30/35 18/26/36
f 13/13/37 15/10/38 17/9/39 16/14/40
f 20/1/41 19/5/42 22/6/43 24/2/44
f 19/31/45 21/28/46 23/27/47 22/32/48
f 19/52/49 20/53/50 9/54/51 7/55/52 8/56/53 3/57/54 1/58/55 2/59/56 15/60/57 13/61/58 14/62/59 21/63/60
f 22/64/61 23/65/62 18/66/63 16/67/64 17/68/65 4/69/66 5/70/67 6/71/68 11/72/69 12/73/70 10/74/71 24/75/72
f 34/76/73 36/77/74 37/78/75 35/79/76
f 25/33/77 49/34/78 48/35/79 27/36/80 29/37/81
f 26/80/82 28/81/83 32/82/84 30/83/85
f 29/84/86 27/85/87 31/86/88 33/87/89
f 30/38/90 32/39/91 36/40/92 34/41/93
f 33/42/94 31/43/95 35/44/96 37/45/97
f 44/88/98 47/89/99 39/90/100 38/91/101
f 53/92/102 51/93/103 41/94/104 40/95/105
f 46/46/106 45/47/107 50/48/108 52/49/109 28/50/110 26/51/111
f 47/96/112 77/97/113 78/98/114 53/99/115 40/100/116 39/101/117
f 51/102/118 50/103/119 45/104/120 44/105/121 38/106/122 41/107/123
f 60/108/124 59/109/125 42/110/126 43/111/127 75/112/128
f 54/113/129 55/114/130 60/108/131 75/112/132 73/115/133 66/116/134 65/117/135 68/118/136 67/119/137 62/120/138 61/121/139 72/122/140 71/123/141 64/124/142 63/125/143 70/126/144 69/127/145 74/128/146 76/129/147 49/130/148 25/131/149 58/132/150 57/133/151 56/134/152
